<svg xmlns="http://www.w3.org/2000/svg" width="12" height="60" viewBox="0 0 12 60">
  <metadata><?xpacket begin="﻿" id="W5M0MpCehiHzreSzNTczkc9d"?>
<x:xmpmeta xmlns:x="adobe:ns:meta/" x:xmptk="Adobe XMP Core 5.6-c142 79.160924, 2017/07/13-01:06:39        ">
   <rdf:RDF xmlns:rdf="http://www.w3.org/1999/02/22-rdf-syntax-ns#">
      <rdf:Description rdf:about=""/>
   </rdf:RDF>
</x:xmpmeta>
<?xpacket end="w"?></metadata>
<defs>
    <style>
      .cls-1 {
        fill: #000;
      }
    </style>
  </defs>
  <path id="_" data-name="!" class="cls-1" d="M11.675,0H0.5L2.6,40.973H9.617ZM1.607,58.4a6,6,0,0,0,4.459,1.61,5.687,5.687,0,0,0,4.379-1.671A6.386,6.386,0,0,0,12,53.812a6.218,6.218,0,0,0-1.533-4.468,5.791,5.791,0,0,0-4.4-1.61,6.119,6.119,0,0,0-4.479,1.55A6.08,6.08,0,0,0,.013,53.812,6.242,6.242,0,0,0,1.607,58.4Z"/>
</svg>
